<svg width="300" height="300" viewBox="0 0 300 300" fill="none" xmlns="http://www.w3.org/2000/svg">
<path fill-rule="evenodd" clip-rule="evenodd" d="M229.4 46.4769C228.356 52.5303 226.081 59.6282 222.423 67.366C220.44 63.8862 217.978 60.6883 215.101 57.8694C210.702 53.3466 205.354 49.8563 199.443 47.65C197.36 46.8411 195.17 46.1311 192.761 45.5339C202.371 36.9344 210.225 31.9812 216.232 29.6614C224.084 26.6296 226.739 28.6252 227.684 29.7297C229.402 31.7367 231.045 36.9479 229.4 46.4769ZM229.438 94.9996C229.326 92.7144 229.152 90.604 228.923 88.638C229.113 88.3969 229.29 88.1424 229.455 87.8748C237.906 74.1244 243.173 60.7526 245.167 49.198C247.088 38.069 246.24 26.8016 239.838 19.3242C232.664 10.9441 221.569 10.4492 210.469 14.7355C199.54 18.9557 186.652 28.3113 172.02 43.2842C165.976 43.0701 159.896 43.0184 141.532 43.0184C124.298 43.0184 117.88 43.0781 112.161 43.2586C97.6493 28.4598 84.8607 19.2005 74.0043 15.0085C62.9039 10.7222 51.8092 11.2171 44.6349 19.5972C38.2333 27.0746 37.3853 38.342 39.306 49.471C41.246 60.7119 46.2841 73.6727 54.3373 87.0288C54.0094 89.4378 53.7694 92.0719 53.6255 94.9996C53.1999 104.412 53.1115 107.402 53.1115 131.439C53.1115 155.476 53.2275 158.471 53.6255 167.878C54.0897 177.296 55.5544 183.713 57.7431 189.35C59.9705 195.251 63.458 200.594 67.9624 205.008C72.3663 209.525 77.7127 213.015 83.6203 215.228C89.2578 217.389 95.6746 218.881 105.093 219.345C114.505 219.771 117.495 219.859 141.532 219.859C165.569 219.859 168.564 219.743 177.971 219.345C187.389 218.881 193.806 217.383 199.443 215.228C203.17 213.821 206.674 211.912 209.862 209.561C217.405 212.178 221.117 216.983 223.415 223.317C224.5 226.308 225.23 229.511 225.784 232.926C225.783 233.148 225.79 233.371 225.808 233.596C226.116 237.598 226.566 241.443 227.219 245.094L227.219 245.101C227.384 246.784 227.552 248.507 227.739 250.27C228.728 259.598 230.296 271.085 237.286 279.116C245.037 288.02 257.219 290.616 273.868 287.817C277.687 287.174 280.416 283.925 280.538 280.198H281V274.198H280.537C280.54 274.107 280.541 274.015 280.541 273.923C280.541 269.505 276.96 265.923 272.541 265.923C260.006 265.923 253.554 263.045 249.699 258.752C246.743 255.46 244.52 250.496 243.1 242.976C242.337 235.044 241.36 225.866 238.456 217.861C235.441 209.551 230.256 202.088 221.412 197.229C222.978 194.752 224.29 192.113 225.321 189.35C227.482 183.713 228.974 177.296 229.438 167.878C229.864 158.466 229.952 155.476 229.952 131.439C229.952 107.402 229.836 104.406 229.438 94.9996ZM61.3538 66.1374C58.1019 58.9823 56.0497 52.4096 55.0729 46.7499C53.4283 37.221 55.0709 32.0098 56.7892 30.0027C57.7347 28.8982 60.3892 26.9026 68.2409 29.9344C74.1352 32.2104 81.8068 37.0214 91.1702 45.324C88.4159 45.9623 85.9537 46.7441 83.6203 47.65C77.7201 49.8775 72.3766 53.365 67.9624 57.8694C65.4189 60.3492 63.2012 63.1279 61.3538 66.1374ZM177.286 59.4501C167.956 59.0522 165.138 58.9361 141.532 58.9361L141.167 58.6819C118.132 58.6819 114.924 58.7974 106.091 59.1154H106.091L105.391 59.1406C96.7524 59.5717 92.1208 61.0087 89.0091 62.2191C84.8086 63.7777 81.9235 65.7674 78.845 68.846C75.7389 71.9576 73.7547 74.8317 72.2292 79.0377C70.9912 82.1217 69.5763 86.8639 69.1176 95.5025C69.099 96.0557 69.081 96.5864 69.0636 97.0999L69.0631 97.1122L69.0623 97.1365L69.0621 97.1436V97.1437C68.785 105.312 68.6533 109.194 68.6533 131.312C68.6533 153.481 68.7855 157.332 69.0637 165.435C69.0811 165.942 69.099 166.465 69.1176 167.01C69.5763 175.649 70.9912 180.402 72.2292 183.475C73.7547 187.593 75.7333 190.555 78.845 193.667C81.9291 196.751 84.8086 198.619 89.0091 200.294C92.1208 201.504 96.8685 202.941 105.474 203.405C114.864 203.837 117.622 203.953 141.289 203.953C164.955 203.953 167.719 203.837 177.098 203.439C185.737 203.035 190.49 201.598 193.563 200.382C197.402 198.961 200.882 196.711 203.754 193.794C206.838 190.655 208.707 187.753 210.381 183.602C211.592 180.491 213.029 175.804 213.493 167.198C213.924 157.869 214.04 155.045 214.04 131.444C214.04 107.844 213.924 105.02 213.526 95.6904C213.123 87.0849 211.686 82.3981 210.47 79.2864C209.064 75.4471 206.812 71.9733 203.882 69.1223C201.019 66.1867 197.537 63.9265 193.69 62.5065C190.578 61.2906 185.891 59.8536 177.286 59.4501ZM124.158 89.5078C129.666 87.2274 135.57 86.0547 141.532 86.0569C147.494 86.0547 153.397 87.2274 158.906 89.5078C164.414 91.7883 169.419 95.1318 173.634 99.3474C177.85 103.563 181.193 108.568 183.474 114.076C185.754 119.585 186.927 125.488 186.925 131.45C186.927 137.412 185.754 143.315 183.474 148.824C181.193 154.332 177.85 159.337 173.634 163.552C169.419 167.768 164.414 171.112 158.906 173.392C153.397 175.672 147.494 176.845 141.532 176.843C135.57 176.845 129.666 175.672 124.158 173.392C118.65 171.112 113.645 167.768 109.429 163.552C105.214 159.337 101.87 154.332 99.5898 148.824C97.3093 143.315 96.1367 137.412 96.1389 131.45C96.1367 125.488 97.3093 119.585 99.5898 114.076C101.87 108.568 105.214 103.563 109.429 99.3474C113.645 95.1318 118.65 91.7883 124.158 89.5078ZM112.057 131.45C112.057 147.743 125.238 160.925 141.532 160.925C157.825 160.925 171.007 147.743 171.007 131.45C171.007 115.156 157.825 101.975 141.532 101.975C125.238 101.975 112.057 115.156 112.057 131.45ZM196.249 91.7523C198.242 89.7615 199.363 87.061 199.366 84.2441C199.366 78.4021 194.58 73.6489 188.738 73.6489C187.345 73.6489 185.966 73.9232 184.679 74.4562C183.392 74.9893 182.223 75.7705 181.238 76.7554C180.253 77.7403 179.472 78.9095 178.939 80.1963C178.406 81.4831 178.131 82.8623 178.131 84.2551C178.131 85.648 178.406 87.0272 178.939 88.314C179.472 89.6008 180.253 90.77 181.238 91.7549C182.223 92.7398 183.392 93.521 184.679 94.054C185.966 94.5871 187.345 94.8614 188.738 94.8614C191.555 94.8614 194.256 93.7431 196.249 91.7523Z" fill="url(#paint0_radial_101_2)"/>
<defs>
<radialGradient id="paint0_radial_101_2" cx="0" cy="0" r="1" gradientUnits="userSpaceOnUse" gradientTransform="translate(76.5 213.5) rotate(-51.4964) scale(171.87 442.455)">
<stop stop-color="#FFDC80"/>
<stop offset="0.208333" stop-color="#FCAF45"/>
<stop offset="0.411458" stop-color="#F56040"/>
<stop offset="0.640625" stop-color="#C13584"/>
<stop offset="0.8125" stop-color="#833AB4"/>
<stop offset="1" stop-color="#5851DB"/>
</radialGradient>
</defs>
</svg>
