<svg width="300" height="300" viewBox="0 0 300 300" fill="none" xmlns="http://www.w3.org/2000/svg">
<g clip-path="url(#clip0_101_2)">
<path d="M141.532 43.0184C117.495 43.0184 114.499 43.1345 105.093 43.5324C95.647 43.9967 89.2578 45.4614 83.6203 47.65C77.7201 49.8775 72.3766 53.365 67.9624 57.8694C63.4455 62.2733 59.956 67.6197 57.743 73.5273C55.5544 79.1648 54.0897 85.554 53.6255 94.9995C53.1999 104.412 53.1115 107.402 53.1115 131.439C53.1115 155.476 53.2275 158.471 53.6255 167.878C54.0897 177.296 55.5544 183.713 57.743 189.35C59.9705 195.251 63.458 200.594 67.9624 205.008C72.3663 209.525 77.7127 213.015 83.6203 215.228C89.2578 217.389 95.6746 218.881 105.093 219.345C114.505 219.771 117.495 219.859 141.532 219.859C165.569 219.859 168.564 219.743 177.971 219.345C187.389 218.881 193.806 217.383 199.443 215.228C205.344 213 210.687 209.513 215.101 205.008C219.624 200.609 223.114 195.261 225.321 189.35C227.482 183.713 228.974 177.296 229.438 167.878C229.864 158.466 229.952 155.476 229.952 131.439C229.952 107.402 229.836 104.406 229.438 94.9995C228.974 85.5816 227.476 79.1316 225.321 73.5273C223.093 67.627 219.606 62.2836 215.101 57.8694C210.702 53.3466 205.354 49.8563 199.443 47.65C193.806 45.4614 187.389 43.9967 177.971 43.5324C168.559 43.1069 165.569 43.0184 141.532 43.0184ZM141.532 58.9361C165.138 58.9361 167.956 59.0522 177.286 59.4501C185.891 59.8536 190.578 61.2906 193.69 62.5065C197.537 63.9265 201.019 66.1866 203.882 69.1223C206.812 71.9732 209.064 75.4471 210.47 79.2864C211.686 82.3981 213.123 87.0849 213.526 95.6904C213.924 105.02 214.04 107.844 214.04 131.444C214.04 155.045 213.924 157.869 213.493 167.198C213.029 175.804 211.592 180.491 210.381 183.602C208.707 187.753 206.838 190.655 203.754 193.794C200.882 196.711 197.402 198.961 193.563 200.382C190.49 201.598 185.737 203.035 177.098 203.439C167.719 203.837 164.955 203.953 141.289 203.953C117.622 203.953 114.864 203.837 105.474 203.405C96.8684 202.941 92.1208 201.504 89.0091 200.294C84.8086 198.619 81.9291 196.751 78.845 193.667C75.7333 190.555 73.7547 187.593 72.2292 183.475C70.9912 180.402 69.5763 175.649 69.1175 167.01C68.8025 157.742 68.6533 154.868 68.6533 131.312C68.6533 107.767 68.8025 104.887 69.1175 95.5025C69.5763 86.8639 70.9912 82.1217 72.2292 79.0377C73.7547 74.8317 75.7389 71.9576 78.845 68.8459C81.9235 65.7674 84.8086 63.7777 89.0091 62.2191C92.1208 61.0087 96.7524 59.5717 105.391 59.1406C114.77 58.8034 117.534 58.6819 141.167 58.6819L141.532 58.9361ZM141.532 86.0569C135.57 86.0547 129.666 87.2274 124.158 89.5078C118.65 91.7883 113.645 95.1318 109.429 99.3474C105.214 103.563 101.87 108.568 99.5898 114.076C97.3093 119.584 96.1367 125.488 96.1389 131.45C96.1367 137.412 97.3093 143.315 99.5898 148.824C101.87 154.332 105.214 159.337 109.429 163.552C113.645 167.768 118.65 171.112 124.158 173.392C129.666 175.672 135.57 176.845 141.532 176.843C147.494 176.845 153.397 175.672 158.906 173.392C164.414 171.112 169.419 167.768 173.634 163.552C177.85 159.337 181.193 154.332 183.474 148.824C185.754 143.315 186.927 137.412 186.925 131.45C186.927 125.488 185.754 119.584 183.474 114.076C181.193 108.568 177.85 103.563 173.634 99.3474C169.419 95.1318 164.414 91.7883 158.906 89.5078C153.397 87.2274 147.494 86.0547 141.532 86.0569V86.0569ZM141.532 160.925C125.238 160.925 112.057 147.743 112.057 131.45C112.057 115.156 125.238 101.975 141.532 101.975C157.825 101.975 171.007 115.156 171.007 131.45C171.007 147.743 157.825 160.925 141.532 160.925ZM199.366 84.2441C199.363 87.061 198.242 89.7615 196.249 91.7523C194.256 93.7431 191.555 94.8614 188.738 94.8614C187.345 94.8614 185.966 94.587 184.679 94.054C183.392 93.521 182.223 92.7398 181.238 91.7549C180.253 90.77 179.472 89.6008 178.939 88.314C178.406 87.0272 178.131 85.648 178.131 84.2551C178.131 82.8623 178.406 81.4831 178.939 80.1963C179.472 78.9095 180.253 77.7403 181.238 76.7554C182.223 75.7705 183.392 74.9892 184.679 74.4562C185.966 73.9232 187.345 73.6489 188.738 73.6489C194.58 73.6489 199.366 78.4021 199.366 84.2441V84.2441Z" fill="#212121"/>
</g>
<path d="M61.8342 83.959C29.6277 31.5551 49.2791 -9.93127 107.142 49.5689" stroke="#212121" stroke-width="16" stroke-linecap="round"/>
<path d="M222.639 83.6859C254.846 31.2821 235.194 -10.2043 177.332 49.2959" stroke="#212121" stroke-width="16" stroke-linecap="round"/>
<path d="M233.784 232.982C235.968 261.368 245.248 273.923 272.541 273.923" stroke="#212121" stroke-width="16" stroke-linecap="round"/>
<path d="M210.312 201.322C256.711 214.423 210.858 290.299 272.541 279.927" stroke="#212121" stroke-width="16" stroke-linecap="round"/>
<path d="M237.867 234.936C237.74 233.284 236.298 232.048 234.646 232.175C232.994 232.302 231.758 233.744 231.885 235.396L237.867 234.936ZM278 280.198H281V274.198H278V280.198ZM231.885 235.396C233.007 249.981 237.11 261.307 244.921 268.968C252.763 276.659 263.871 280.198 278 280.198V274.198C264.835 274.198 255.473 270.913 249.122 264.685C242.741 258.426 238.929 248.736 237.867 234.936L231.885 235.396Z" fill="#212121"/>
<defs>
<clipPath id="clip0_101_2">
<rect width="176.863" height="176.863" fill="white" transform="translate(53.1002 43.0184)"/>
</clipPath>
</defs>
</svg>
